<?xml version="1.0" standalone="no"?><!DOCTYPE svg PUBLIC "-//W3C//DTD SVG 1.1//EN" "http://www.w3.org/Graphics/SVG/1.1/DTD/svg11.dtd"><svg t="1543300884348" class="icon" style="" viewBox="0 0 1024 1024" version="1.1" xmlns="http://www.w3.org/2000/svg" p-id="7195" xmlns:xlink="http://www.w3.org/1999/xlink" width="200" height="200"><defs><style type="text/css"></style></defs><path d="M542.979413 758.33344c0-121.378133 98.399573-219.77088 219.77088-219.77088 25.74336 0 50.333013 4.635307 73.25696 12.765867V392.041813l-244.189866-244.196693H201.106773a48.8448 48.8448 0 0 0-48.837973 48.837973V880.4352a48.837973 48.837973 0 0 0 48.837973 48.837973h423.656107a219.286187 219.286187 0 0 1-81.783467-170.939733z" fill="#EAEAEA" p-id="7196"></path><path d="M591.817387 147.84512v195.35872a48.837973 48.837973 0 0 0 48.837973 48.837973h195.351893l-244.189866-244.196693z" fill="#707070" p-id="7197"></path><path d="M640.662187 392.041813l148.322986 148.329814c16.03584 1.931947 31.798613 5.597867 47.035734 10.9568V392.041813H640.662187z" fill="#3D3D3D" p-id="7198"></path><path d="M274.363733 343.197013h195.351894a24.418987 24.418987 0 0 0 0-48.837973H274.363733a24.418987 24.418987 0 0 0 0 48.837973z m0 97.682774h195.351894a24.418987 24.418987 0 0 0 0-48.837974H274.363733a24.418987 24.418987 0 0 0 0 48.837974z m0 97.682773h439.548587a24.418987 24.418987 0 0 0 0-48.8448H274.363733a24.425813 24.425813 0 0 0 0 48.8448z m350.399147 48.831147H274.363733a24.425813 24.425813 0 0 0 0 48.837973h305.677654a220.13952 220.13952 0 0 1 44.721493-48.837973z m-69.0176 97.682773H274.363733a24.418987 24.418987 0 0 0 0 48.837973h270.056107c1.88416-16.657067 5.69344-33.05472 11.32544-48.837973z m-11.32544 97.675947H274.363733a24.418987 24.418987 0 1 0 0 48.837973h281.381547a218.33728 218.33728 0 0 1-11.32544-48.837973z" fill="#262626" p-id="7199"></path><path d="M762.750293 587.393707c-94.378667 0-170.932907 76.561067-170.932906 170.939733s76.55424 170.939733 170.932906 170.939733 170.939733-76.561067 170.939734-170.939733-76.55424-170.939733-170.939734-170.939733z" fill="#469FCC" p-id="7200"></path><path d="M831.255893 714.233173l-24.610133-24.22784c-6.621867-6.61504-18.315947-6.109867-24.22784-0.18432l-68.498773 68.491947 48.837973 48.837973 68.498773-68.498773c6.53312-6.826667 6.53312-17.59232 0-24.418987zM689.493333 831.56992h48.837974L689.493333 782.72512v48.8448z" fill="#FFFFFF" p-id="7201"></path></svg>