<?xml version="1.0" standalone="no"?><!DOCTYPE svg PUBLIC "-//W3C//DTD SVG 1.1//EN" "http://www.w3.org/Graphics/SVG/1.1/DTD/svg11.dtd"><svg t="1542956768700" class="icon" style="" viewBox="0 0 1024 1024" version="1.1" xmlns="http://www.w3.org/2000/svg" p-id="27360" xmlns:xlink="http://www.w3.org/1999/xlink" width="200" height="200"><defs><style type="text/css"></style></defs><path d="M524.019 887c-50.614 0-99.727-9.918-145.975-29.479-44.658-18.888-84.759-45.923-119.19-80.354s-61.466-74.532-80.355-119.19c-19.561-46.248-29.479-95.361-29.479-145.976 0-50.613 9.918-99.726 29.479-145.974 18.889-44.658 45.924-84.759 80.355-119.191 34.431-34.431 74.533-61.467 119.19-80.355C424.292 146.918 473.405 137 524.019 137c50.613 0 99.727 9.918 145.975 29.48 44.658 18.889 84.759 45.924 119.19 80.355 34.432 34.432 61.467 74.533 80.355 119.191 19.562 46.248 29.479 95.36 29.479 145.974 0 50.614-9.918 99.728-29.479 145.976-18.889 44.658-45.924 84.76-80.355 119.19-34.432 34.432-74.533 61.467-119.19 80.354C623.745 877.082 574.632 887 524.019 887z m0-700c-179.206 0-325 145.794-325 325 0 179.205 145.794 325 325 325 179.205 0 325-145.795 325-325 0-179.206-145.795-325-325-325z" fill="#464899" p-id="27361"></path><path d="M681.265 482H554.019V354.755c0-16.568-13.432-30-30-30s-30 13.432-30 30V482H366.771c-16.568 0-30 13.432-30 30s13.432 30 30 30h127.247v127.249c0 16.568 13.432 30 30 30s30-13.432 30-30V542h127.246c16.568 0 30-13.432 30-30s-13.431-30-29.999-30z" fill="#E84C57" p-id="27362"></path></svg>