<?xml version="1.0" standalone="no"?><!DOCTYPE svg PUBLIC "-//W3C//DTD SVG 1.1//EN" "http://www.w3.org/Graphics/SVG/1.1/DTD/svg11.dtd"><svg t="1542956869607" class="icon" style="" viewBox="0 0 1133 1024" version="1.1" xmlns="http://www.w3.org/2000/svg" p-id="40273" xmlns:xlink="http://www.w3.org/1999/xlink" width="221.2890625" height="200"><defs><style type="text/css"></style></defs><path d="M288.338744 298.455893c-99.003529 99.003529-99.003529 260.155258 0 359.158786 99.003529 99.003529 260.155258 99.003529 359.158786 0 99.003529-99.003529 99.003529-260.155258 0-359.158786-99.726182-99.726182-260.155258-99.726182-359.158786 0z m312.186309 312.186309c-73.710656 73.710656-192.948483 73.710656-266.659139 0s-73.710656-192.948483 0-266.659139 192.948483-73.710656 266.659139 0 73.710656 192.948483 0 266.659139z" fill="#595959" p-id="40274"></path><path d="M850.563162 771.793931c7.949188 7.949188 7.949188 20.234298 0 27.460833l-64.316161 64.31616c-7.949188 7.949188-20.234298 7.949188-27.460833 0L639.548342 744.333098c-7.949188-7.949188-7.949188-20.234298 0-27.460833l64.31616-64.316161c7.949188-7.949188 20.234298-7.949188 27.460833 0l119.237827 119.237827z" fill="#17BADE" p-id="40275"></path><path d="M355.545519 398.904728c-6.503881-5.058574-7.949188-14.45307-2.890614-21.679604 1.445307-1.445307 40.468596-54.921665 112.011291-55.644319 25.292872 0 54.199012 7.226535 85.273112 26.015525 7.226535 4.335921 9.394495 13.730416 5.058575 20.956952-4.335921 7.226535-13.730416 9.394495-20.956951 5.058574-26.738179-15.898377-49.863091-21.679605-69.374736-21.679605-47.695131 0-80.214538 33.964714-86.718419 41.913903-0.722653 1.445307-1.445307 1.445307-1.445307 1.445307-2.890614 4.335921-7.949188 5.781228-12.285109 5.781228-2.890614 0.722653-6.503881-0.722653-8.671842-2.167961zM593.298518 390.232886c0 7.949188-6.503881 13.730416-13.730416 13.730417-7.949188 0-13.730416-6.503881-13.730417-13.730417 0-7.949188 6.503881-13.730416 13.730417-13.730416 7.949188 0 13.730416 5.781228 13.730416 13.730416z" fill="#BF618C" p-id="40276"></path></svg>