<?xml version="1.0" standalone="no"?><!DOCTYPE svg PUBLIC "-//W3C//DTD SVG 1.1//EN" "http://www.w3.org/Graphics/SVG/1.1/DTD/svg11.dtd"><svg t="1543300927238" class="icon" style="" viewBox="0 0 1133 1024" version="1.1" xmlns="http://www.w3.org/2000/svg" p-id="4538" xmlns:xlink="http://www.w3.org/1999/xlink" width="221.2890625" height="200"><defs><style type="text/css"></style></defs><path d="M757.340861 449.490473H676.40367V264.491179c0-7.949188-6.503881-14.45307-14.45307-14.45307H504.412138c-7.949188 0-14.45307 6.503881-14.45307 14.45307v185.721947H409.744531c-7.949188 0-10.117149 5.058574-5.058575 10.839803l169.823571 194.393789c5.058574 5.781228 13.730416 5.781228 18.788991 0l169.823571-194.393789c4.335921-6.503881 2.16796-11.562456-5.781228-11.562456z" fill="#17BADE" p-id="4539"></path><path d="M879.469301 698.083275H287.61609c-5.781228 0-10.117149 4.335921-10.117149 10.117148v119.96048c0 5.781228 4.335921 10.117149 10.117149 10.117149h591.853211c5.781228 0 10.117149-4.335921 10.117149-10.117149V708.200423c0-5.781228-4.335921-10.117149-10.117149-10.117148z m-507.302752 98.280875c-13.730416 0-24.570219-10.839802-24.570219-24.570219s10.839802-24.570219 24.570219-24.570219 24.570219 10.839802 24.570219 24.570219-10.839802 24.570219-24.570219 24.570219z m75.878617-5.781228c-10.117149 0-18.788991-8.671842-18.788991-18.788991 0-10.117149 8.671842-18.788991 18.788991-18.788991 10.117149 0 18.788991 8.671842 18.788991 18.788991 0 10.117149-8.671842 18.788991-18.788991 18.788991z m62.1482-3.613268c-7.949188 0-15.175723-6.503881-15.175723-15.175723 0-7.949188 6.503881-15.175723 15.175723-15.175724 7.949188 0 15.175723 6.503881 15.175724 15.175724-0.722653 8.671842-7.226535 15.175723-15.175724 15.175723z" fill="#666666" p-id="4540"></path></svg>