<?xml version="1.0" standalone="no"?><!DOCTYPE svg PUBLIC "-//W3C//DTD SVG 1.1//EN" "http://www.w3.org/Graphics/SVG/1.1/DTD/svg11.dtd"><svg t="1555161244795" class="icon" style="" viewBox="0 0 1024 1024" version="1.1" xmlns="http://www.w3.org/2000/svg" p-id="2168" xmlns:xlink="http://www.w3.org/1999/xlink" width="240" height="240"><defs><style type="text/css"></style></defs><path d="M882.145 156.068h-463.93c-34.161 0-61.855 27.698-61.855 61.856v92.786h-30.931c-34.161 0-61.856 27.698-61.856 61.856V496.28c0 34.161 27.695 61.858 61.856 61.858h123.718c34.155 0 61.855-27.697 61.855-61.858V372.567c0-34.159-27.7-61.856-61.855-61.856h-30.932v-92.786h463.93v494.857H696.57v-30.928c0-9.998-2.356-19.451-6.582-27.819l75.628-130.962c8.521-14.799 3.444-33.707-11.324-42.254-14.802-8.547-33.708-3.474-42.255 11.326l-73.878 127.942a67.121 67.121 0 0 0-3.444-0.09H139.856C105.7 619.997 78 647.693 78 681.854v185.571h618.57V774.64h185.574c34.159 0 61.855-27.697 61.855-61.857V217.925c0.001-34.159-27.695-61.857-61.854-61.857z" p-id="2169" fill="#015b8b"></path></svg>